<?xml version="1.0" encoding="UTF-8" standalone="no"?><!DOCTYPE svg PUBLIC "-//W3C//DTD SVG 1.1//EN" "http://www.w3.org/Graphics/SVG/1.1/DTD/svg11.dtd"><svg width="100%" height="100%" viewBox="0 0 512 512" version="1.1" xmlns="http://www.w3.org/2000/svg" xmlns:xlink="http://www.w3.org/1999/xlink" xml:space="preserve" xmlns:serif="http://www.serif.com/" style="fill-rule:evenodd;clip-rule:evenodd;stroke-linecap:round;stroke-linejoin:round;stroke-miterlimit:1.5;"><path d="M492,138.25l0,235.5c0,64.988 -52.762,117.75 -117.75,117.75l-236.5,0c-64.988,0 -117.75,-52.762 -117.75,-117.75l0,-235.5c0,-64.988 52.762,-117.75 117.75,-117.75l236.5,0c64.988,0 117.75,52.762 117.75,117.75Z" style="fill:#ffbf00;fill-opacity:0;stroke:#ffbf00;stroke-width:24px;"/><g><path d="M165.11,424.577c0.12,-48.86 0.687,-49.088 4.099,-54.137c1.457,-2.156 3.383,-6.828 -26.951,-18.205c-47.163,-17.69 -51.862,-65.33 -38.012,-92.384c14.967,-29.234 42.53,-34.251 43.492,-34.604c1.819,-0.669 -2.66,-5.471 -4.819,-9.001c-19.165,-31.331 3.038,-84.503 12.495,-100.887c45.147,-78.219 184.656,-86.998 241.232,10.384c37.897,65.23 9.322,172.6 -26.66,239.988c-0.853,1.598 3.979,5.324 5.545,10.038c1.382,4.158 1.532,4.611 1.311,54.759c-0.01,2.259 -0.089,20.173 -13.557,24.764c-8.782,2.994 -9.054,1.988 -115.968,1.137c-64.672,-0.515 -82.213,7.422 -82.208,-31.851Zm206.325,-243.601c-0.388,4.891 1.238,31.748 -21.329,59.149c-30.866,37.478 -76.802,26.443 -77.398,29.567c-0.173,0.908 0.716,18.313 -15.257,32.893c-13.906,12.693 -24.987,11.59 -75.942,11.156c-12.13,-0.103 -12.733,-20.746 -0.16,-21.323c31.264,-1.435 66.111,7.696 69.731,-21.001c1.638,-12.983 -8.452,-25.443 -21.618,-26.448c-23.995,-1.832 -62.024,-0.405 -67.413,-0.202c-48.878,1.835 -58.626,69.337 -15.249,86.232c19.012,7.405 25.932,8.023 47.094,29.564c0.311,0.316 0.348,1.408 142.545,1.236c7.803,-0.009 9.331,2.181 13.483,-4.491c21.552,-34.636 63.647,-150.527 31.481,-214.305c-46.752,-92.698 -180.218,-84.307 -213.374,-4.916c-31.052,74.352 11.036,82.703 17.777,84.04c37.459,7.432 52.928,-13.397 81.379,24.544c0.074,0.098 28.145,3.343 43.691,-3.51c27.077,-11.937 38.052,-38.214 39.055,-58.495c0.96,-19.421 17.898,-17.306 21.506,-3.689Zm-149.093,253.934c55.013,0.052 54.827,0.392 110.024,0.358c22.598,-0.014 22.957,-0.718 22.967,-1.911c0.031,-3.903 0.358,-45.487 0.03,-48.786c-0.188,-1.891 -168.529,-2.479 -168.629,-0.134c-0.166,3.902 -1.173,27.642 -0.122,48.823c0.166,3.348 2.115,1.555 35.73,1.65Z" style="fill:#ffbf00;"/></g></svg>